<svg xmlns="http://www.w3.org/2000/svg" width="24.348" height="29.997" viewBox="0 0 24.348 29.997">
  <path id="Icon_simple-apple" data-name="Icon simple-apple" d="M9.405,29.417a6.718,6.718,0,0,1-1.554-1.437,19.267,19.267,0,0,1-1.329-1.816A17.569,17.569,0,0,1,4.3,21.622a17.079,17.079,0,0,1-.928-5.43,10.093,10.093,0,0,1,1.252-5.109A7.22,7.22,0,0,1,7.245,8.358a7,7,0,0,1,3.548-1.049A5.858,5.858,0,0,1,12.2,7.5c.362.1.8.262,1.337.462.687.262,1.062.425,1.187.462a2.926,2.926,0,0,0,1,.212,2.99,2.99,0,0,0,.806-.162c.181-.062.525-.175,1.012-.387.482-.175.864-.325,1.168-.437a10.424,10.424,0,0,1,1.312-.325,6.191,6.191,0,0,1,1.434-.062,8.507,8.507,0,0,1,2.423.525,6.537,6.537,0,0,1,3.069,2.448,6.148,6.148,0,0,0-.906.687,7.648,7.648,0,0,0-1.536,1.88,6.37,6.37,0,0,0-.8,3.148,6.447,6.447,0,0,0,1.049,3.573,6.659,6.659,0,0,0,1.916,1.919A4.91,4.91,0,0,0,27.719,22c-.15.468-.315.924-.506,1.374a17.724,17.724,0,0,1-1.561,2.886c-.54.787-.964,1.374-1.287,1.761a6.964,6.964,0,0,1-1.474,1.37,3.281,3.281,0,0,1-1.814.545,4.022,4.022,0,0,1-1.292-.159c-.362-.119-.72-.252-1.069-.4a8.669,8.669,0,0,0-1.13-.425,5.645,5.645,0,0,0-1.454-.184,5.829,5.829,0,0,0-1.449.181,9,9,0,0,0-1.133.406c-.525.219-.868.362-1.068.425A5.585,5.585,0,0,1,11.245,30a3.435,3.435,0,0,1-1.856-.562ZM17.967,6.358A4.652,4.652,0,0,1,15.5,6.9a5.009,5.009,0,0,1,.337-2.545,6.879,6.879,0,0,1,1.249-2.1A6.756,6.756,0,0,1,19.125.686,5.792,5.792,0,0,1,21.486,0a5.678,5.678,0,0,1-.312,2.586,7.418,7.418,0,0,1-1.249,2.2,6.3,6.3,0,0,1-1.981,1.574Z" transform="translate(-3.37 0.002)" fill="#999"/>
</svg>
