<svg xmlns="http://www.w3.org/2000/svg" width="26" height="22.75" viewBox="0 0 26 22.75">
  <path id="Icon_awesome-archive" data-name="Icon awesome-archive" d="M1.625,23.375A1.623,1.623,0,0,0,3.25,25h19.5a1.623,1.623,0,0,0,1.625-1.625V8.75H1.625ZM9.75,12.609A.611.611,0,0,1,10.359,12h5.281a.611.611,0,0,1,.609.609v.406a.611.611,0,0,1-.609.609H10.359a.611.611,0,0,1-.609-.609ZM24.375,2.25H1.625A1.623,1.623,0,0,0,0,3.875V6.312a.815.815,0,0,0,.813.812H25.188A.815.815,0,0,0,26,6.312V3.875A1.623,1.623,0,0,0,24.375,2.25Z" transform="translate(0 -2.25)" fill="#22bf8c"/>
</svg>
