<svg xmlns="http://www.w3.org/2000/svg" width="28" height="21" viewBox="0 0 28 21">
  <g id="filter_icon" data-name="filter icon" transform="translate(0 -44)">
    <path id="Rectangle_1312" data-name="Rectangle 1312" d="M0,0H12.5A1.5,1.5,0,0,1,14,1.5v0A1.5,1.5,0,0,1,12.5,3H0A0,0,0,0,1,0,3V0A0,0,0,0,1,0,0Z" transform="translate(14 45)" fill="#d2ecf7"/>
    <path id="Rectangle_1364" data-name="Rectangle 1364" d="M0,0H12.5A1.5,1.5,0,0,1,14,1.5v0A1.5,1.5,0,0,1,12.5,3H0A0,0,0,0,1,0,3V0A0,0,0,0,1,0,0Z" transform="translate(14 61)" fill="#d2ecf7"/>
    <path id="Rectangle_1361" data-name="Rectangle 1361" d="M0,0H12.5A1.5,1.5,0,0,1,14,1.5v0A1.5,1.5,0,0,1,12.5,3H0A0,0,0,0,1,0,3V0A0,0,0,0,1,0,0Z" transform="translate(14 56) rotate(180)" fill="#d2ecf7"/>
    <path id="Rectangle_1357" data-name="Rectangle 1357" d="M1.5,0H5A0,0,0,0,1,5,0V3A0,0,0,0,1,5,3H1.5A1.5,1.5,0,0,1,0,1.5v0A1.5,1.5,0,0,1,1.5,0Z" transform="translate(0 45)" fill="#d2ecf7"/>
    <path id="Rectangle_1366" data-name="Rectangle 1366" d="M1.5,0H5A0,0,0,0,1,5,0V3A0,0,0,0,1,5,3H1.5A1.5,1.5,0,0,1,0,1.5v0A1.5,1.5,0,0,1,1.5,0Z" transform="translate(0 61)" fill="#d2ecf7"/>
    <path id="Rectangle_1363" data-name="Rectangle 1363" d="M1.5,0H5A0,0,0,0,1,5,0V3A0,0,0,0,1,5,3H1.5A1.5,1.5,0,0,1,0,1.5v0A1.5,1.5,0,0,1,1.5,0Z" transform="translate(28 56) rotate(180)" fill="#d2ecf7"/>
    <rect id="Rectangle_1351" data-name="Rectangle 1351" width="5" height="5" transform="translate(7 44)" fill="#d2ecf7"/>
    <rect id="Rectangle_1365" data-name="Rectangle 1365" width="5" height="5" transform="translate(7 60)" fill="#d2ecf7"/>
    <rect id="Rectangle_1362" data-name="Rectangle 1362" width="5" height="5" transform="translate(21 57) rotate(180)" fill="#d2ecf7"/>
  </g>
</svg>
