<svg xmlns="http://www.w3.org/2000/svg" width="31.661" height="30" viewBox="0 0 31.661 30">
  <g id="teacherwallet-logo-mark-rgb" transform="translate(-36.039 -32.939)">
    <path id="Path_34" data-name="Path 34" d="M246.847,222.757c-7.3,1.788-11.855,8.89-10.154,15.828a5.1,5.1,0,0,0,9.891-2.427,3.447,3.447,0,0,1,6.68-1.636,10.459,10.459,0,0,1-1.226,7.978,11.141,11.141,0,0,1-4.533,4.251.825.825,0,0,0,.6,1.524.6.6,0,0,0,.2-.085,12.622,12.622,0,0,0,5.147-4.838,12.1,12.1,0,0,0,1.421-9.236,5.1,5.1,0,0,0-9.9,2.432,3.445,3.445,0,0,1-6.678,1.636c-1.485-6.053,2.521-12.255,8.937-13.829a12.059,12.059,0,0,1,12.2,3.871,10.587,10.587,0,0,1,2.042,4.272,16.483,16.483,0,0,1,.353,6.051.828.828,0,1,0,1.645.193,18.439,18.439,0,0,0-.383-6.646,12.263,12.263,0,0,0-2.374-4.923A13.72,13.72,0,0,0,246.847,222.757Z" transform="translate(-195.908 -185.361)" fill="#199cde"/>
    <path id="Path_35" data-name="Path 35" d="M223.338,217.62a.83.83,0,0,0,1.081-.468,15.845,15.845,0,0,1,4.291-6.187,17.156,17.156,0,0,1,15.117-3.768,15.443,15.443,0,0,1,6.627,3.513.832.832,0,0,0,.741.171.888.888,0,0,0,.431-.265.855.855,0,0,0-.083-1.19,17.127,17.127,0,0,0-7.327-3.861,18.813,18.813,0,0,0-16.59,4.133,17.682,17.682,0,0,0-4.748,6.826.857.857,0,0,0,.006.645A.832.832,0,0,0,223.338,217.62Z" transform="translate(-185.555 -172.127)" fill="#199cde"/>
    <path id="Path_36" data-name="Path 36" d="M267.24,276.168a.845.845,0,0,0-1.639.4,7.3,7.3,0,0,1-5.622,8.814,10.921,10.921,0,0,1-1.752.267.844.844,0,1,0,.108,1.684,11.93,11.93,0,0,0,2.047-.309,9.1,9.1,0,0,0,4.73-2.7A9,9,0,0,0,267.24,276.168Z" transform="translate(-212.318 -226.688)" fill="#199cde"/>
    <path id="Path_37" data-name="Path 37" d="M262.014,240.311a9.349,9.349,0,0,0-7.126,11.121.844.844,0,0,0,1.639-.4,7.9,7.9,0,0,1,15.31-3.751,13.406,13.406,0,0,1,.033,6.7,16.017,16.017,0,0,1-2.054,4.712.833.833,0,0,0,.293,1.154.745.745,0,0,0,.625.108.831.831,0,0,0,.522-.389,17.7,17.7,0,0,0,2.239-5.131,15.032,15.032,0,0,0-.019-7.554A9.359,9.359,0,0,0,262.014,240.311Z" transform="translate(-210.518 -199.461)" fill="#199cde"/>
    <path id="Path_38" data-name="Path 38" d="M218.781,275.229h.021a.864.864,0,0,0,.63-1.028,9.045,9.045,0,0,1,.016-2.915.862.862,0,0,0-1.7-.3,10.586,10.586,0,0,0,0,3.6A.859.859,0,0,0,218.781,275.229Z" transform="translate(-181.55 -222.401)" fill="#199cde"/>
  </g>
</svg>
