<svg xmlns="http://www.w3.org/2000/svg" width="14.854" height="14.75" viewBox="0 0 14.854 14.75">
  <path id="Union_14" data-name="Union 14" d="M.443,14.3a1.522,1.522,0,0,1-.415-1.365l.68-3.452L9.522.671a2.292,2.292,0,0,1,3.241,0l1.49,1.486a2.054,2.054,0,0,1,0,2.9L5.266,14.042l-3.459.68a1.491,1.491,0,0,1-.289.028A1.51,1.51,0,0,1,.443,14.3ZM1.9,12.844l1.178-.232-.946-.946ZM2.911,9.858l1.977,1.98L11.324,5.4,9.345,3.429Zm7.9-7.9-.177.176,1.979,1.976.349-.345a.233.233,0,0,0,.066-.159.229.229,0,0,0-.066-.163L11.479,1.962a.471.471,0,0,0-.335-.136A.463.463,0,0,0,10.812,1.962Z" fill="#fff"/>
</svg>
