<svg xmlns="http://www.w3.org/2000/svg" width="13.033" height="14.891" viewBox="0 0 13.033 14.891">
  <path id="Union_7" data-name="Union 7" d="M.389,14.439a1.692,1.692,0,0,1-.364-1.378l.6-3.485L8.355.677a1.831,1.831,0,0,1,2.844,0l1.308,1.5a2.231,2.231,0,0,1,.527,1.463,2.235,2.235,0,0,1-.527,1.468L4.621,14.176l-3.035.686a1.143,1.143,0,0,1-.253.029A1.244,1.244,0,0,1,.389,14.439Zm1.283-1.472,1.034-.234-.83-.955Zm.883-3.015,1.735,2L9.936,5.456,8.2,3.461ZM9.487,1.98l-.155.178,1.737,1.995.306-.348a.256.256,0,0,0,.058-.16.251.251,0,0,0-.058-.165l-1.3-1.5a.387.387,0,0,0-.294-.137A.381.381,0,0,0,9.487,1.98Z" fill="#043b5c"/>
</svg>
