<svg xmlns="http://www.w3.org/2000/svg" width="30" height="30" viewBox="0 0 30 30">
  <g id="Group_1850" data-name="Group 1850" transform="translate(-196 -15)">
    <circle id="Ellipse_161" data-name="Ellipse 161" cx="15" cy="15" r="15" transform="translate(196 15)" fill="#199cde"/>
    <path id="Union_6" data-name="Union 6" d="M1806.5-12813.5v-5h-5a1.5,1.5,0,0,1-1.5-1.5,1.5,1.5,0,0,1,1.5-1.5h5v-5a1.5,1.5,0,0,1,1.5-1.5,1.5,1.5,0,0,1,1.5,1.5v5h5a1.5,1.5,0,0,1,1.5,1.5,1.5,1.5,0,0,1-1.5,1.5h-5v5a1.5,1.5,0,0,1-1.5,1.5A1.5,1.5,0,0,1,1806.5-12813.5Z" transform="translate(-1597.001 12850)" fill="#d3ecf7"/>
  </g>
</svg>
