<svg xmlns="http://www.w3.org/2000/svg" width="30" height="30" viewBox="0 0 30 30">
  <g id="Group_1648" data-name="Group 1648" transform="translate(0.032)">
    <circle id="Ellipse_154" data-name="Ellipse 154" cx="15" cy="15" r="15" transform="translate(-0.032)" fill="#fff"/>
    <path id="Union_16" data-name="Union 16" d="M-5824.848-12154.4a.392.392,0,0,1-.183-.336v-4.614a.4.4,0,0,1,.342-.4l6.443-.922-6.443-.923a.4.4,0,0,1-.342-.394v-4.614a.4.4,0,0,1,.183-.339.4.4,0,0,1,.382-.024l12.855,5.931a.4.4,0,0,1,.232.363.4.4,0,0,1-.232.363l-12.855,5.933a.394.394,0,0,1-.165.037A.39.39,0,0,1-5824.848-12154.4Z" transform="translate(5834.581 12175.667)" fill="#b2b2b2"/>
  </g>
</svg>
